<?xml version="1.0" encoding="utf-8"?>
<svg version="1.1" id="logo" xmlns="http://www.w3.org/2000/svg" xmlns:xlink="http://www.w3.org/1999/xlink" x="0px" y="0px"
	 viewBox="0 0 748 748" style="enable-background:new 0 0 748 748;" xml:space="preserve">
<path fill="#AAAAAA" d="M673.2,0H74.9C33.5,0,0,33.5,0,74.9v598.3C0,714.5,33.5,748,74.9,748h598.3c41.3,0,74.9-33.5,74.9-74.9V74.9
	C748,33.5,714.5,0,673.2,0z M602.8,311c0,75.4-41.9,122.3-106.6,145.1l83.6,137.3c15.9,26.2-5.1,58.2-38.3,58.2H495L386.4,473.9
	h-11.1c-20,0-50.5,0.3-68.9-0.4v0h-1c-0.1,0-0.3,0-0.4,0v0h-4.8v60.9c0,23.4-21.1,42.4-47.1,42.4h-57.9V468.3V430
	c0-21.9,19.8-39.5,44.1-39.3l63.9,0.6l1.9,0.1c12.6,0.7,56.9,2.1,70.3,2.1c81.4,0,118.5-19.9,118.5-82.5v-6.4
	c0-27.4-10.5-46.7-31.4-59l0.1,0c0,0-4.3-3-13.8-6.5c-1.2-0.5-2.5-0.9-3.8-1.3c-0.1,0-0.1,0-0.2-0.1c-18.1-6.1-41.2-9.1-69.3-9.1
	c-1.8,0-4,0-6.3,0c-43.1,0-93.4,3.2-123.4,5.2l3.6,52.4c0.7,9.6-11.9,15.1-19.9,8.8l-47.7-38.1l-69.4-55.4l61.3-62.7l36.7-37.5
	c9.1-9.3,26.1-4,26.9,8.3l2.8,41.2c38.5-4.3,86.3-6.9,135.4-6.9c121.6,0,227.5,39.1,227.5,160.7V311z"/>
</svg>
