<?xml version="1.0" encoding="utf-8"?>
<!-- Generator: Adobe Illustrator 21.1.0, SVG Export Plug-In . SVG Version: 6.00 Build 0)  -->
<svg version="1.1" id="Ebene_1" xmlns="http://www.w3.org/2000/svg" xmlns:xlink="http://www.w3.org/1999/xlink" x="0px" y="0px"
	 viewBox="0 0 70 70" style="enable-background:new 0 0 70 70;" xml:space="preserve">
<style type="text/css">
	.st0{fill:#FFFFFF;}
</style>
<g>
	<path class="st0" d="M59.7,0H10.3C4.6,0,0,4.6,0,10.3v49.4C0,65.4,4.6,70,10.3,70h49.4C65.4,70,70,65.4,70,59.7V10.3
		C70,4.6,65.4,0,59.7,0z M54.6,50.2c-2.2,5.3-5.9,9-11,11.1c-5.2,2.2-10.5,2.2-15.7,0.2c-5.4-2.1-9-5.6-11.2-10.9
		c-2-4.6-1.8-10.3,0.5-16.7l0.8-2.2c1.9-5.3,2.8-10.1,3.1-14.2c0.2-3,0-6.5-0.5-10.6c2.5,3.3,5.1,5.9,7.3,7.8
		c3.1,2.6,7.2,5.2,12.3,7.6l2.1,1c6.2,2.9,10.4,6.7,12.3,11.3C56.8,39.9,56.8,44.9,54.6,50.2z"/>
	<path class="st0" d="M40.4,28.8c-4.7-2.6-9.5-2.9-10.9-0.6c-1.3,2.3,1.4,6.3,6.1,9c4.7,2.6,9.5,2.9,10.9,0.6
		C47.8,35.6,45.1,31.6,40.4,28.8z"/>
</g>
</svg>
